<svg xmlns="http://www.w3.org/2000/svg" xmlns:xlink="http://www.w3.org/1999/xlink" width="500" zoomAndPan="magnify" viewBox="0 0 375 374.999991" height="500" preserveAspectRatio="xMidYMid meet" version="1.0"><defs><clipPath id="id1"><path d="M 279 83 L 375 83 L 375 176 L 279 176 Z M 279 83 " clip-rule="nonzero"/></clipPath><clipPath id="id2"><path d="M 84.203125 71.519531 L 374.863281 151.640625 L 314.871094 369.273438 L 24.210938 289.152344 Z M 84.203125 71.519531 " clip-rule="nonzero"/></clipPath><clipPath id="id3"><path d="M 58.308594 12.253906 L 393.074219 104.53125 L 319.730469 370.609375 L -15.035156 278.332031 Z M 58.308594 12.253906 " clip-rule="nonzero"/></clipPath><clipPath id="id4"><path d="M 58.308594 12.253906 L 393.074219 104.53125 L 319.730469 370.609375 L -15.035156 278.332031 Z M 58.308594 12.253906 " clip-rule="nonzero"/></clipPath><clipPath id="id5"><path d="M 74 160 L 353 160 L 353 355 L 74 355 Z M 74 160 " clip-rule="nonzero"/></clipPath><clipPath id="id6"><path d="M 84.203125 71.519531 L 374.863281 151.640625 L 314.871094 369.273438 L 24.210938 289.152344 Z M 84.203125 71.519531 " clip-rule="nonzero"/></clipPath><clipPath id="id7"><path d="M 58.308594 12.253906 L 393.074219 104.53125 L 319.730469 370.609375 L -15.035156 278.332031 Z M 58.308594 12.253906 " clip-rule="nonzero"/></clipPath><clipPath id="id8"><path d="M 58.308594 12.253906 L 393.074219 104.53125 L 319.730469 370.609375 L -15.035156 278.332031 Z M 58.308594 12.253906 " clip-rule="nonzero"/></clipPath><clipPath id="id9"><path d="M 24 178 L 88 178 L 88 292 L 24 292 Z M 24 178 " clip-rule="nonzero"/></clipPath><clipPath id="id10"><path d="M 84.203125 71.519531 L 374.863281 151.640625 L 314.871094 369.273438 L 24.210938 289.152344 Z M 84.203125 71.519531 " clip-rule="nonzero"/></clipPath><clipPath id="id11"><path d="M 58.308594 12.253906 L 393.074219 104.53125 L 319.730469 370.609375 L -15.035156 278.332031 Z M 58.308594 12.253906 " clip-rule="nonzero"/></clipPath><clipPath id="id12"><path d="M 58.308594 12.253906 L 393.074219 104.53125 L 319.730469 370.609375 L -15.035156 278.332031 Z M 58.308594 12.253906 " clip-rule="nonzero"/></clipPath><clipPath id="id13"><path d="M 49 254 L 136 254 L 136 314 L 49 314 Z M 49 254 " clip-rule="nonzero"/></clipPath><clipPath id="id14"><path d="M 84.203125 71.519531 L 374.863281 151.640625 L 314.871094 369.273438 L 24.210938 289.152344 Z M 84.203125 71.519531 " clip-rule="nonzero"/></clipPath><clipPath id="id15"><path d="M 58.308594 12.253906 L 393.074219 104.53125 L 319.730469 370.609375 L -15.035156 278.332031 Z M 58.308594 12.253906 " clip-rule="nonzero"/></clipPath><clipPath id="id16"><path d="M 58.308594 12.253906 L 393.074219 104.53125 L 319.730469 370.609375 L -15.035156 278.332031 Z M 58.308594 12.253906 " clip-rule="nonzero"/></clipPath><clipPath id="id17"><path d="M 113 75 L 244 75 L 244 262 L 113 262 Z M 113 75 " clip-rule="nonzero"/></clipPath><clipPath id="id18"><path d="M 67.132812 107.648438 L 252.398438 49.25 L 310.792969 234.515625 L 125.527344 292.910156 Z M 67.132812 107.648438 " clip-rule="nonzero"/></clipPath><clipPath id="id19"><path d="M 67.132812 107.648438 L 250.25 49.925781 L 307.96875 233.046875 L 124.851562 290.765625 Z M 67.132812 107.648438 " clip-rule="nonzero"/></clipPath></defs><rect x="-37.5" width="450" fill="#ffffff" y="-37.499999" height="449.999989" fill-opacity="1"/><rect x="-37.5" width="450" fill="#ffffff" y="-37.499999" height="449.999989" fill-opacity="1"/><rect x="-37.5" width="450" fill="#ffffff" y="-37.499999" height="449.999989" fill-opacity="1"/><rect x="-37.5" width="450" fill="#ffffff" y="-37.499999" height="449.999989" fill-opacity="1"/><g clip-path="url(#id1)"><g clip-path="url(#id2)"><g clip-path="url(#id3)"><g clip-path="url(#id4)"><path fill="#000000" d="M 316.125 83.683594 C 314.875 83.828125 313.269531 84.792969 312.640625 85.765625 C 312.316406 86.230469 304.855469 100.730469 296.042969 118 C 284.648438 140.246094 279.960938 149.65625 279.914062 150.425781 C 279.851562 151 280.035156 152 280.347656 152.640625 C 281.421875 155.03125 278.8125 154.179688 318.761719 165.191406 L 355.183594 175.230469 L 356.378906 174.808594 C 357.027344 174.59375 357.902344 174.148438 358.320312 173.804688 C 359.289062 173.027344 391.777344 109.707031 391.832031 108.445312 C 391.898438 106.894531 391.226562 105.300781 390.082031 104.363281 C 388.996094 103.441406 387.847656 103.09375 352.964844 93.511719 C 329.847656 87.136719 316.660156 83.632812 316.125 83.683594 Z M 379.371094 111.554688 C 379.296875 111.828125 353.652344 162.050781 352.75 163.664062 L 352.40625 164.324219 L 322.332031 156.035156 C 293.652344 148.128906 292.265625 147.714844 292.40625 147.195312 C 292.558594 146.648438 318.570312 95.679688 319.054688 94.992188 C 319.371094 94.558594 379.503906 111.066406 379.371094 111.554688 Z M 379.371094 111.554688 " fill-opacity="1" fill-rule="nonzero"/></g></g></g></g><g clip-path="url(#id5)"><g clip-path="url(#id6)"><g clip-path="url(#id7)"><g clip-path="url(#id8)"><path fill="#000000" d="M 277.226562 160.289062 C 276.109375 160.308594 274.632812 161.042969 273.792969 161.957031 C 273.460938 162.324219 265.113281 178.378906 255.261719 197.648438 L 237.292969 232.710938 L 169.078125 213.972656 L 100.855469 195.265625 L 99.507812 195.648438 C 98.761719 195.867188 97.859375 196.40625 97.484375 196.824219 C 97.074219 197.234375 91.851562 207.179688 85.839844 218.90625 C 76.199219 237.746094 74.921875 240.371094 74.910156 241.480469 C 74.914062 242.886719 75.707031 244.644531 76.707031 245.507812 C 77.1875 245.902344 87.453125 248.863281 114.394531 256.421875 L 151.445312 266.796875 L 139.953125 289.152344 C 133.65625 301.449219 128.371094 311.96875 128.210938 312.546875 C 127.777344 313.996094 128.414062 316.203125 129.566406 317.238281 C 130.507812 318.085938 131.867188 318.496094 170.265625 329.078125 C 208.359375 339.578125 210.066406 340.019531 211.210938 339.777344 C 213.234375 339.320312 214.050781 338.136719 218.925781 328.519531 L 223.492188 319.539062 L 230.265625 321.40625 C 233.972656 322.429688 236.976562 323.386719 236.933594 323.539062 C 236.902344 323.660156 235.109375 327.191406 232.984375 331.347656 C 228.609375 339.863281 228.128906 341.136719 228.742188 342.941406 C 229.574219 345.492188 229.105469 345.296875 247.089844 350.253906 L 263.21875 354.703125 L 264.414062 354.277344 C 265.0625 354.066406 265.96875 353.628906 266.390625 353.285156 C 266.972656 352.824219 278.660156 330.230469 309.621094 269.730469 C 332.972656 224.144531 352.230469 186.296875 352.40625 185.65625 C 352.777344 184.320312 352.304688 182.585938 351.246094 181.214844 L 350.570312 180.339844 L 314.378906 170.296875 C 294.457031 164.773438 277.753906 160.269531 277.226562 160.289062 Z M 339.917969 188.757812 C 339.644531 189.269531 321.707031 224.34375 300 266.683594 L 260.574219 343.667969 L 250.648438 341.027344 C 245.109375 339.535156 240.730469 338.230469 240.761719 338.105469 C 240.804688 337.957031 242.75 334.105469 245.074219 329.578125 C 248.597656 322.730469 249.300781 321.125 249.308594 320.144531 C 249.3125 318.476562 248.902344 317.480469 247.695312 316.394531 C 246.710938 315.46875 246.203125 315.296875 233.628906 311.929688 C 220.96875 308.535156 220.535156 308.449219 219.546875 308.832031 C 217.5 309.609375 217.152344 310.167969 212.234375 319.707031 L 207.472656 329.03125 L 174.035156 319.910156 C 155.675781 314.882812 140.566406 310.652344 140.507812 310.503906 C 140.429688 310.320312 145.59375 299.996094 152.011719 287.5 C 160.632812 270.703125 163.679688 264.507812 163.746094 263.675781 C 163.871094 262.273438 163.015625 260.398438 161.859375 259.492188 C 161.140625 258.902344 154.5625 257.023438 124.0625 248.617188 C 102.554688 242.6875 87.1875 238.320312 87.230469 238.167969 C 87.324219 237.835938 102.84375 207.496094 103.257812 206.824219 C 103.550781 206.351562 107.234375 207.332031 171.898438 225.089844 L 240.242188 243.832031 L 241.238281 243.417969 C 241.785156 243.210938 242.601562 242.746094 243.050781 242.414062 C 243.628906 241.984375 248.671875 232.347656 261.8125 206.71875 C 271.675781 187.417969 279.816406 171.535156 279.855469 171.382812 C 279.890625 171.261719 293.523438 174.921875 310.171875 179.511719 L 340.429688 187.851562 Z M 339.917969 188.757812 " fill-opacity="1" fill-rule="nonzero"/></g></g></g></g><g clip-path="url(#id9)"><g clip-path="url(#id10)"><g clip-path="url(#id11)"><g clip-path="url(#id12)"><path fill="#000000" d="M 37.949219 178.253906 C 36.316406 178.359375 34.984375 179.039062 34.257812 180.148438 C 33.019531 182.03125 -13.09375 272.484375 -13.421875 273.667969 C -13.867188 275.28125 -13.320312 277.101562 -12.066406 278.230469 C -11.234375 279.015625 -9.421875 279.550781 12.117188 285.484375 L 35.386719 291.898438 L 36.582031 291.476562 C 37.257812 291.269531 38.160156 290.734375 38.605469 290.300781 C 39.097656 289.816406 48.488281 271.757812 63.214844 243 C 85.578125 199.335938 87.042969 196.398438 87.003906 195.113281 C 86.976562 193.4375 86.074219 191.847656 84.671875 191.003906 C 82.910156 189.929688 39.617188 178.125 37.949219 178.253906 Z M 74.722656 198.761719 C 74.601562 198.957031 65.382812 216.867188 54.308594 238.550781 C 43.203125 260.222656 33.773438 278.664062 33.355469 279.464844 L 32.546875 280.976562 L 15.535156 276.285156 L -1.476562 271.597656 L -1.132812 270.9375 C -0.941406 270.597656 8.5625 252.015625 20.019531 229.65625 L 40.800781 189.019531 L 57.871094 193.726562 C 71.421875 197.460938 74.886719 198.515625 74.722656 198.761719 Z M 74.722656 198.761719 " fill-opacity="1" fill-rule="nonzero"/></g></g></g></g><g clip-path="url(#id13)"><g clip-path="url(#id14)"><g clip-path="url(#id15)"><g clip-path="url(#id16)"><path fill="#000000" d="M 69.226562 254.867188 C 68.550781 255.070312 67.648438 255.609375 67.242188 256.019531 C 66.035156 257.191406 49.226562 290.1875 49.101562 291.589844 C 49.0625 292.203125 49.246094 293.203125 49.558594 293.84375 C 50.632812 296.234375 48.507812 295.515625 82.957031 305.011719 L 114.367188 313.671875 L 115.5625 313.25 C 116.210938 313.035156 117.085938 312.589844 117.507812 312.246094 C 118.378906 311.570312 135.066406 279.261719 135.644531 277.164062 C 136.054688 275.675781 135.582031 273.941406 134.503906 272.761719 C 133.699219 271.886719 133.0625 271.710938 102.046875 263.160156 L 70.421875 254.441406 Z M 123.351562 279.894531 C 123.152344 280.265625 120.554688 285.308594 117.566406 291.160156 C 114.589844 296.980469 112.027344 302 111.855469 302.28125 C 111.566406 302.722656 110.101562 302.351562 86.527344 295.855469 C 72.765625 292.0625 61.460938 288.847656 61.441406 288.679688 C 61.414062 288.539062 63.84375 283.648438 66.851562 277.832031 C 69.867188 271.992188 72.507812 266.796875 72.78125 266.28125 L 73.230469 265.359375 L 98.476562 272.316406 L 123.6875 279.269531 Z M 123.351562 279.894531 " fill-opacity="1" fill-rule="nonzero"/></g></g></g></g><g clip-path="url(#id17)"><g clip-path="url(#id18)"><g clip-path="url(#id19)"><path fill="#000000" d="M 158.691406 78.785156 C 124.347656 89.613281 105.277344 126.238281 116.105469 160.589844 C 127.457031 196.609375 163.175781 210.113281 187.113281 232.066406 C 210.015625 253.074219 213.113281 262.945312 216.410156 261.90625 C 219.707031 260.867188 216.585938 251 223.304688 220.660156 C 230.332031 188.945312 251.84375 157.40625 240.488281 121.382812 C 229.664062 87.03125 193.039062 67.960938 158.691406 78.785156 Z M 185.792969 164.769531 C 172.65625 168.910156 158.648438 161.617188 154.507812 148.484375 C 150.363281 135.339844 157.660156 121.332031 170.796875 117.191406 C 183.933594 113.050781 197.945312 120.34375 202.085938 133.488281 C 206.226562 146.621094 198.933594 160.628906 185.792969 164.769531 Z M 185.792969 164.769531 " fill-opacity="1" fill-rule="nonzero"/></g></g></g></svg>