<svg
  xmlns="http://www.w3.org/2000/svg"
  zoomAndPan="magnify"
  viewBox="0 0 375 374.999991"
  preserveAspectRatio="xMidYMid meet"
  version="1.0"
>
  <path
    fill="#000000"
    d="M 169.890625 138.292969 C 159.796875 151.042969 141.328125 153.167969 128.554688 143.089844 C 115.855469 133.050781 113.714844 114.546875 123.785156 101.859375 C 133.847656 89.117188 152.320312 86.960938 165.035156 97.035156 C 177.8125 107.09375 179.929688 125.570312 169.890625 138.292969 Z M 169.890625 138.292969 "
  />
  <path
    fill="#000000"
    d="M 65.570312 156.125 C 62.117188 156.125 58.769531 157.546875 56.363281 160.050781 L 29.148438 188.375 C 16.507812 200.652344 35.777344 219.175781 47.523438 206.0625 L 70.953125 181.683594 L 93.410156 181.707031 L 67.890625 227.320312 C 63.757812 234.691406 66.636719 243.867188 74.023438 247.886719 C 93.910156 258.738281 110.425781 264.652344 130.007812 273.667969 L 146.824219 333.460938 C 152.234375 352.648438 181.015625 344.535156 175.605469 325.339844 L 156.917969 258.910156 C 155.71875 254.695312 152.765625 251.207031 148.777344 249.363281 L 119.984375 236.148438 L 137.371094 200.292969 L 152.515625 217.894531 C 156.117188 222.054688 162.003906 223.445312 167.105469 221.304688 L 205.425781 205.28125 C 222.363281 199.316406 211.816406 173.957031 195.609375 181.761719 L 165.792969 194.210938 L 142.507812 167.09375 C 141.136719 165.53125 139.4375 164.332031 137.539062 163.582031 L 121.496094 157.15625 C 119.992188 156.574219 118.40625 156.261719 116.789062 156.261719 Z M 65.570312 156.125 "
  />
  <path
    fill="#000000"
    d="M 76.144531 258.03125 L 69.476562 271.785156 L 23.59375 284.621094 C 3.679688 289.554688 12.050781 319.519531 31.652344 313.410156 L 84.007812 298.789062 C 88.136719 297.644531 91.59375 294.769531 93.46875 290.898438 L 103.308594 270.558594 Z M 76.144531 258.03125 "
  />
  <path
    fill="#000000"
    d="M 255.15625 0.242188 C 251.171875 0.445312 248.070312 3.734375 248.070312 7.71875 L 248.097656 29.59375 L 155.964844 29.59375 C 150.609375 29.59375 146.261719 33.941406 146.261719 39.328125 L 146.261719 76.734375 L 165.648438 76.734375 L 165.648438 48.984375 L 248.128906 48.984375 L 248.574219 325.011719 L 189.28125 325.011719 L 189.28125 344.40625 L 248.601562 344.40625 L 248.660156 366.332031 C 248.660156 371.492188 253.789062 375.097656 258.640625 373.339844 L 366.726562 341.699219 C 369.65625 340.644531 371.613281 337.847656 371.636719 334.699219 L 371.636719 39.304688 C 371.636719 36.15625 369.683594 33.363281 366.726562 32.277344 L 258.058594 0.691406 C 257.132812 0.359375 256.128906 0.191406 255.15625 0.242188 Z M 255.15625 0.242188 "
  />
</svg>
