<svg width="330pt" height="330pt" version="1.1" xmlns="http://www.w3.org/2000/svg" xmlns:xlink="http://www.w3.org/1999/xlink">
  <!-- <path d="m484.42 221.92c-1.7539 0-3.168 1.4258-3.168 3.168v196.33c0 23.961-19.465 43.535-43.527 43.535h-229.14c-23.961 0-43.535-19.473-43.535-43.535v-229.14c0-23.949 19.473-43.527 43.535-43.527h194.14c1.7422 0 3.168-1.418 3.168-3.168 0-1.7539-1.4258-3.168-3.168-3.168h-194.14c-27.566 0-49.988 22.422-49.988 49.98v229.14c0 27.566 22.422 49.988 49.988 49.988h229.14c27.559 0 49.98-22.422 49.98-49.988v-196.33c-0.11328-1.8555-1.5312-3.2852-3.2852-3.2852z"/> -->
  <path d="m370 144c-1.7539 0-3.168 1.4258-3.168 3.168v196.33c0 23.961-19.465 43.535-43.527 43.535h-229.14c-23.961 0-43.535-19.473-43.535-43.535v-229.14c0-23.949 19.473-43.527 43.535-43.527h194.14c1.7422 0 3.168-1.418 3.168-3.168 0-1.7539-1.4258-3.168-3.168-3.168h-194.14c-27.566 0-49.988 22.422-49.988 49.98v229.14c0 27.566 22.422 49.988 49.988 49.988h229.14c27.559 0 49.98-22.422 49.98-49.988v-196.33c-0.11328-1.8555-1.5312-3.2852-3.2852-3.2852z"/>
  <path d="m417.14 20c-6.3398-6.3398-14.879-9.8438-23.84-9.8438-8.9727 0-17.5 3.5039-23.848 9.8438l-161.44 161.44c-0.43359 0.43359-0.64844 0.87109-0.76172 1.418l-17.5 60.59c-0.33203 1.0938 0 2.3008 0.76172 3.1797 0.66016 0.64844 1.4258 0.98047 2.3008 0.98047 0.33203 0 0.54688 0 0.87891-0.11328l60.59-17.5c0.54688-0.11328 0.98047-0.43359 1.418-0.76953l161.44-161.54c6.3398-6.3477 9.8438-14.879 9.8438-23.848 0-8.9648-3.5039-17.504-9.8438-23.844zm-4.5977 43.09-160.88 160.89-54.141 15.637 15.637-54.141 160.89-160.88c5.1367-5.1445 12.031-7.9883 19.254-7.9883 7.2109 0 14.105 2.8477 19.242 7.9883 5.1445 5.1367 7.9883 12.031 7.9883 19.242 0 7.332-2.8477 14.117-7.9922 19.25z"/>
  <!-- <path d="m531.56 98.438c-6.3398-6.3398-14.879-9.8438-23.84-9.8438-8.9727 0-17.5 3.5039-23.848 9.8438l-161.44 161.44c-0.43359 0.43359-0.64844 0.87109-0.76172 1.418l-17.5 60.59c-0.33203 1.0938 0 2.3008 0.76172 3.1797 0.66016 0.64844 1.4258 0.98047 2.3008 0.98047 0.33203 0 0.54688 0 0.87891-0.11328l60.59-17.5c0.54688-0.11328 0.98047-0.43359 1.418-0.76953l161.44-161.54c6.3398-6.3477 9.8438-14.879 9.8438-23.848 0-8.9648-3.5039-17.504-9.8438-23.844zm-4.5977 43.09-160.88 160.89-54.141 15.637 15.637-54.141 160.89-160.88c5.1367-5.1445 12.031-7.9883 19.254-7.9883 7.2109 0 14.105 2.8477 19.242 7.9883 5.1445 5.1367 7.9883 12.031 7.9883 19.242 0 7.332-2.8477 14.117-7.9922 19.25z"/> -->
</svg>
