<svg width="435pt" height="435pt" version="1.1" xmlns="http://www.w3.org/2000/svg" xmlns:xlink="http://www.w3.org/1999/xlink">
  <path d="m290 65.793c-47.59 0-86.398 38.574-86.398 86.168 0 47.59 38.805 86.398 86.398 86.398 47.59 0 86.168-38.805 86.168-86.398 0-47.59-38.574-86.168-86.168-86.168zm0 17.281c38.133 0 68.887 30.754 68.887 68.887 0 38.133-30.754 68.887-68.887 68.887-38.133 0-68.887-30.754-68.887-68.887 0-38.133 30.754-68.887 68.887-68.887z"/>
  <path d="m290 273.7c-93.41 0-169.53 76.121-169.53 169.53-0.035156 2.3398 0.875 4.5977 2.5195 6.2656 1.6445 1.668 3.8867 2.6055 6.2305 2.6055s4.5859-0.9375 6.2305-2.6055c1.6445-1.668 2.5508-3.9258 2.5195-6.2656 0-83.953 68.078-152.03 152.03-152.03s151.76 68.078 151.76 152.03c-0.035156 2.3398 0.875 4.5977 2.5195 6.2656 1.6445 1.668 3.8867 2.6055 6.2305 2.6055s4.5859-0.9375 6.2305-2.6055c1.6445-1.668 2.5508-3.9258 2.5195-6.2656 0-93.41-75.848-169.53-169.26-169.53z"/>
  <path d="m290 13.168c-150.43 0-272.68 122.06-272.68 272.49s122.25 272.68 272.68 272.68c150.43 0 272.49-122.25 272.49-272.68s-122.06-272.49-272.49-272.49zm0 17.566c140.98 0 255.11 113.95 255.11 254.92 0 140.98-114.14 255.11-255.11 255.11-140.98 0-255.11-114.14-255.11-255.11 0-140.98 114.14-254.92 255.11-254.92z"/>
</svg>
